<?xml version="1.0" encoding="UTF-8" standalone="no"?>
<!DOCTYPE svg PUBLIC "-//W3C//DTD SVG 1.1//EN" "http://www.w3.org/Graphics/SVG/1.1/DTD/svg11.dtd">
<svg width="100%" height="100%" viewBox="0 0 449 449" version="1.1" xmlns="http://www.w3.org/2000/svg" xmlns:xlink="http://www.w3.org/1999/xlink" xml:space="preserve" xmlns:serif="http://www.serif.com/" style="fill-rule:evenodd;clip-rule:evenodd;stroke-linejoin:round;stroke-miterlimit:2;">
    <g transform="matrix(1,0,0,1,-3570.32,-5567.31)">
        <g transform="matrix(0.690792,0,0,0.690792,1321.26,2017.07)">
            <rect x="3255.76" y="5139.38" width="648.842" height="648.842" style="fill:none;"/>
        </g>
        <g transform="matrix(0.237676,0,0,0.237676,2781.45,4610.83)">
            <g transform="matrix(4.16667,0,0,4.16667,3348.64,4119.22)">
                <path d="M386.854,312.792L375,306.865L375,237.766C384.29,234.628 391,225.836 391,215.5C391,202.542 380.458,192 367.5,192L335,192L335,183.5C335,179.358 331.643,176 327.5,176L311,176L311,135.5C311,109.45 298.405,86.287 278.986,71.779C278.989,71.686 279,71.594 279,71.5L279,45.766C288.29,42.628 295,33.836 295,23.5C295,10.542 284.458,0 271.5,0C258.542,0 248,10.542 248,23.5C248,33.836 254.71,42.628 264,45.766L264,62.975C254.07,58.507 243.076,56 231.5,56C219.924,56 208.93,58.507 199,62.975L199,45.766C208.29,42.628 215,33.836 215,23.5C215,10.542 204.458,0 191.5,0C178.542,0 168,10.542 168,23.5C168,33.836 174.71,42.628 184,45.766L184,71.5C184,71.594 184.011,71.686 184.014,71.779C164.595,86.287 152,109.45 152,135.5L152,176L135.5,176C131.357,176 128,179.358 128,183.5L128,192L95.5,192C82.542,192 72,202.542 72,215.5C72,225.836 78.71,234.628 88,237.766L88,306.865L76.146,312.792C73.606,314.062 72,316.659 72,319.5L72,343.5C72,346.341 73.605,348.938 76.146,350.208L92.146,358.208C93.223,358.747 94.368,359.001 95.495,359.001C98.246,359.001 100.895,357.481 102.209,354.854C104.062,351.149 102.56,346.644 98.855,344.792L87,338.865L87,324.136L95.5,319.886L104,324.136L104,335.5C104,339.642 107.357,343 111.5,343C115.643,343 119,339.642 119,335.5L119,319.5C119,316.659 117.395,314.062 114.854,312.792L103,306.865L103,239L128,239L128,271.5C128,297.55 140.595,320.713 160.014,335.221C160.011,335.314 160,335.406 160,335.5L160,383.5C160,393.836 166.71,402.628 176,405.766L191,405.766C200.29,402.628 207,393.836 207,383.5L207,350.987C207.167,350.988 207.332,351 207.5,351L255.5,351C255.668,351 255.833,350.988 256,350.987L256,383.5C256,393.836 262.71,402.628 272,405.766L287,405.766C296.29,402.628 303,393.836 303,383.5L303,335.5C303,335.406 302.989,335.314 302.986,335.221C322.405,320.713 335,297.55 335,271.5L335,239L360,239L360,306.865L348.146,312.792C345.606,314.062 344,316.659 344,319.5L344,335.5C344,339.642 347.357,343 351.5,343C355.643,343 359,339.642 359,335.5L359,324.135L367.5,319.885L376,324.135L376,338.864L364.146,344.791C360.442,346.643 358.94,351.148 360.792,354.853C362.105,357.481 364.755,359.001 367.506,359C368.633,359 369.777,358.745 370.855,358.207L386.855,350.207C389.395,348.937 391.001,346.34 391.001,343.499L391.001,319.499C391,316.659 389.395,314.062 386.854,312.792ZM367.5,224C362.813,224 359,220.187 359,215.5C359,210.813 362.813,207 367.5,207C372.187,207 376,210.813 376,215.5C376,220.187 372.187,224 367.5,224ZM167,159L296,159L296,176L167,176L167,159ZM95.5,207C100.187,207 104,210.813 104,215.5C104,220.187 100.187,224 95.5,224C90.813,224 87,220.187 87,215.5C87,210.813 90.813,207 95.5,207ZM117.403,224C118.43,221.362 119,218.497 119,215.5C119,212.503 118.43,209.638 117.403,207L128,207L128,224L117.403,224ZM183.5,392C178.813,392 175,388.187 175,383.5C175,378.813 178.813,375 183.5,375C188.187,375 192,378.813 192,383.5C192,388.187 188.187,392 183.5,392ZM192,361.597C189.362,360.57 186.497,360 183.5,360C180.503,360 177.638,360.57 175,361.597L175,344.025C180.38,346.446 186.069,348.295 192,349.472L192,361.597ZM199.5,264C190.402,264 183,256.598 183,247.5C183,238.402 190.402,231 199.5,231L263.5,231C272.598,231 280,238.402 280,247.5C280,256.598 272.598,264 263.5,264L199.5,264ZM279.5,392C274.813,392 271,388.187 271,383.5C271,378.813 274.813,375 279.5,375C284.187,375 288,378.813 288,383.5C288,388.187 284.187,392 279.5,392ZM288,361.597C285.362,360.57 282.497,360 279.5,360C276.503,360 273.638,360.57 271,361.597L271,349.472C276.931,348.295 282.62,346.446 288,344.025L288,361.597ZM335,207L345.597,207C344.57,209.638 344,212.503 344,215.5C344,218.497 344.57,221.362 345.597,224L335,224L335,207Z" style="fill:rgb(252,186,15);fill-rule:nonzero;stroke:black;stroke-width:4.21px;"/>
            </g>
            <g transform="matrix(1,0,0,1,-30,0)">
                <g transform="matrix(1,0,0,1,0,-4.16814)">
                    <circle cx="4161.64" cy="4611.41" r="83.363"/>
                    <path d="M4161.64,4497.04C4098.52,4497.04 4047.27,4548.29 4047.27,4611.41C4047.27,4674.54 4098.52,4725.78 4161.64,4725.78C4224.77,4725.78 4276.01,4674.54 4276.01,4611.41C4276.01,4548.29 4224.77,4497.04 4161.64,4497.04ZM4161.64,4528.05C4207.65,4528.05 4245.01,4565.4 4245.01,4611.41C4245.01,4657.42 4207.65,4694.78 4161.64,4694.78C4115.63,4694.78 4078.28,4657.42 4078.28,4611.41C4078.28,4565.4 4115.63,4528.05 4161.64,4528.05Z" style="fill:rgb(252,186,15);"/>
                </g>
                <g transform="matrix(1,0,0,1,236.726,-4.16814)">
                    <circle cx="4161.64" cy="4611.41" r="83.363"/>
                    <path d="M4161.64,4497.04C4098.52,4497.04 4047.27,4548.29 4047.27,4611.41C4047.27,4674.54 4098.52,4725.78 4161.64,4725.78C4224.77,4725.78 4276.01,4674.54 4276.01,4611.41C4276.01,4548.29 4224.77,4497.04 4161.64,4497.04ZM4161.64,4528.05C4207.65,4528.05 4245.01,4565.4 4245.01,4611.41C4245.01,4657.42 4207.65,4694.78 4161.64,4694.78C4115.63,4694.78 4078.28,4657.42 4078.28,4611.41C4078.28,4565.4 4115.63,4528.05 4161.64,4528.05Z" style="fill:rgb(252,186,15);"/>
                </g>
            </g>
        </g>
    </g>
</svg>
